<?xml version="1.0" encoding="UTF-8"?>
<svg id="OBJECTS" xmlns="http://www.w3.org/2000/svg" viewBox="0 0 250 250">
  <defs>
    <style>
      .cls-1 {
        fill: #2b2f60;
      }

      .cls-2 {
        fill: #3cb371;
      }
    </style>
  </defs>
  <path class="cls-2" d="M183.17,144.25c-.57,2.36-1.4,3.98-2.75,4.93-1.95,1.36-4.35,1.01-5.26,.89-4.7-.62-13.83-1.09-26.3-1.57-.72,.96-1.43,1.92-2.15,2.88l-16,25.99c-2.26,3.67-7.84,2.63-8.63-1.6l-4.46-23.87c-.32-1.59-.6-2.93-.8-3.88,3.23-.84,7.95-2.03,13.68-3.35,12.89-2.98,19.36-4.64,22.5-4.16,6.07,.93,12.29,.83,18.41,1.53,3.07,.35,4.69-.34,5.11-3.57,2.52-19.57-.53-38.13-9.82-55.62-1.35-2.56-2.77-3.14-5.52-1.9-26.53,11.99-53.11,23.89-79.71,35.73-2.42,1.08-2.98,2.46-2.65,5.02,1.76,13.83,1.7,13.84,15.64,14.73,2.65,.17,5.29,.31,8.2,.47,.04-.01,.07-.01,.11-.01,.09,0,.17,.02,.25,.03,.04,0,.07,0,.11,0h0c1.84,.19,3.28,1.72,3.28,3.61,0,2.01-1.63,3.64-3.64,3.64-.31,0-24.36-.82-26.05-1.56-.77-.34-1.31-.87-1.31-.87-.81-.79-1.2-1.86-1.41-3.03-1.26-7.05-2.38-14.12-3.73-21.15-.73-3.75,1.6-4.98,4.33-6.2,21.42-9.58,42.82-19.19,64.23-28.79,7.74-3.46,15.58-6.74,23.19-10.46,3.78-1.84,6.13-1.08,8.4,2.23,8.55,12.41,12.42,26.41,14.13,41.13,1.12,9.64,.93,19.24-1.38,28.78Z"/>
  <path class="cls-1" d="M74.62,84.93h28.84c1.13,0,2.24,.05,3.35,.14,2.65,.22,5.19-1.06,6.52-3.36h0c2.47-4.3-.35-9.72-5.29-10.14-1.51-.13-3.04-.19-4.58-.19h-28.64c-29.92,0-55.18,24.48-54.97,54.39,.1,14.76,6.13,28.12,15.82,37.81,9.77,9.77,23.27,15.81,38.19,15.81h29.6c1.54,0,3.07-.07,4.58-.19,4.94-.42,7.76-5.85,5.29-10.14h0c-1.32-2.3-3.87-3.58-6.52-3.36-1.11,.09-2.22,.14-3.35,.14h-29.6c-22.64,0-40.99-18.68-40.44-41.43,.53-22.08,19.12-39.46,41.2-39.46Z"/>
  <path class="cls-1" d="M35.44,154.01l-9.75,24.92c-1.57,4.01,2.62,7.84,6.47,5.92l27.33-13.59-24.05-17.25Z"/>
  <rect class="cls-2" x="201.88" y="96.18" width="28.41" height="7.16" rx="2.73" ry="2.73" transform="translate(-17.61 54.7) rotate(-13.87)"/>
  <rect class="cls-2" x="184.38" y="74.47" width="28.41" height="7.16" rx="2.73" ry="2.73" transform="translate(41.04 221.95) rotate(-63.87)"/>
  <rect class="cls-2" x="196.49" y="123.54" width="28.41" height="7.16" rx="2.73" ry="2.73" transform="translate(115.49 -99.79) rotate(36.13)"/>
</svg>