<?xml version="1.0" encoding="UTF-8"?>
<svg id="OBJECTS" xmlns="http://www.w3.org/2000/svg" viewBox="0 0 600 250">
  <defs>
    <style>
      .cls-1 {
        fill: #2b2f60;
      }

      .cls-2 {
        fill: #3cb371;
      }
    </style>
  </defs>
  <g>
    <path class="cls-2" d="M360.85,89.87c-.57,2.36-1.4,3.98-2.75,4.93-1.95,1.36-4.35,1.01-5.26,.89-4.7-.62-13.83-1.09-26.3-1.57-.72,.96-1.43,1.92-2.15,2.88l-16,25.99c-2.26,3.67-7.84,2.63-8.63-1.6l-4.46-23.87c-.32-1.59-.6-2.93-.8-3.88,3.23-.84,7.95-2.03,13.68-3.35,12.89-2.98,19.36-4.64,22.5-4.16,6.07,.93,12.29,.83,18.41,1.53,3.07,.35,4.69-.34,5.11-3.57,2.52-19.57-.53-38.13-9.82-55.62-1.35-2.56-2.77-3.14-5.52-1.9-26.53,11.99-53.11,23.89-79.71,35.73-2.42,1.08-2.98,2.46-2.65,5.02,1.76,13.83,1.7,13.84,15.64,14.73,2.65,.17,5.29,.31,8.2,.47,.04-.01,.07-.01,.11-.01,.09,0,.17,.02,.25,.03,.04,0,.07,0,.11,0h0c1.84,.19,3.28,1.72,3.28,3.61,0,2.01-1.63,3.64-3.64,3.64-.31,0-24.36-.82-26.05-1.56-.77-.34-1.31-.87-1.31-.87-.81-.79-1.2-1.86-1.41-3.03-1.26-7.05-2.38-14.12-3.73-21.15-.73-3.75,1.6-4.98,4.33-6.2,21.42-9.58,42.82-19.19,64.23-28.79,7.74-3.46,15.58-6.74,23.19-10.46,3.78-1.84,6.13-1.08,8.4,2.23,8.55,12.41,12.42,26.41,14.13,41.13,1.12,9.64,.93,19.24-1.38,28.78Z"/>
    <path class="cls-1" d="M252.3,30.55h28.84c1.13,0,2.24,.05,3.35,.14,2.65,.22,5.19-1.06,6.52-3.36h0c2.47-4.3-.35-9.72-5.29-10.14-1.51-.13-3.04-.19-4.58-.19h-28.64c-29.92,0-55.18,24.48-54.97,54.39,.1,14.76,6.13,28.12,15.82,37.81,9.77,9.77,23.27,15.81,38.19,15.81h29.6c1.54,0,3.07-.07,4.58-.19,4.94-.42,7.76-5.85,5.29-10.14h0c-1.32-2.3-3.87-3.58-6.52-3.36-1.11,.09-2.22,.14-3.35,.14h-29.6c-22.64,0-40.99-18.68-40.44-41.43,.53-22.08,19.12-39.46,41.2-39.46Z"/>
    <path class="cls-1" d="M213.12,99.63l-9.75,24.92c-1.57,4.01,2.62,7.84,6.47,5.92l27.33-13.59-24.05-17.25Z"/>
    <rect class="cls-2" x="379.55" y="41.8" width="28.41" height="7.16" rx="2.73" ry="2.73" transform="translate(.6 95.7) rotate(-13.87)"/>
    <rect class="cls-2" x="362.06" y="20.09" width="28.41" height="7.16" rx="2.73" ry="2.73" transform="translate(189.28 351.04) rotate(-63.87)"/>
    <rect class="cls-2" x="374.17" y="69.17" width="28.41" height="7.16" rx="2.73" ry="2.73" transform="translate(117.6 -215.01) rotate(36.13)"/>
  </g>
  <path class="cls-1" d="M135.29,162.68v43.58h-12.07v-5.02c-3.13,3.78-7.67,5.67-13.61,5.67-4.1,0-7.82-.92-11.14-2.75-3.32-1.83-5.93-4.46-7.82-7.86-1.89-3.4-2.83-7.34-2.83-11.83s.94-8.42,2.83-11.83c1.89-3.4,4.5-6.02,7.82-7.86,3.32-1.83,7.03-2.75,11.14-2.75,5.56,0,9.91,1.76,13.04,5.27v-4.62h12.64Zm-15.55,30.58c2.11-2.19,3.16-5.12,3.16-8.79s-1.05-6.6-3.16-8.79c-2.11-2.19-4.75-3.28-7.94-3.28s-5.91,1.09-8.02,3.28c-2.11,2.19-3.16,5.12-3.16,8.79s1.05,6.6,3.16,8.79c2.11,2.19,4.78,3.28,8.02,3.28s5.83-1.09,7.94-3.28Z"/>
  <path class="cls-1" d="M215.76,166.86c3.21,3.21,4.82,8.03,4.82,14.46v24.95h-12.64v-23c0-3.46-.72-6.04-2.15-7.74-1.43-1.7-3.47-2.55-6.12-2.55-2.97,0-5.32,.96-7.05,2.88-1.73,1.92-2.59,4.77-2.59,8.55v21.87h-12.64v-23c0-6.86-2.75-10.29-8.26-10.29-2.92,0-5.24,.96-6.97,2.88-1.73,1.92-2.59,4.77-2.59,8.55v21.87h-12.64v-43.58h12.07v5.02c1.62-1.83,3.6-3.24,5.95-4.21,2.35-.97,4.93-1.46,7.74-1.46,3.08,0,5.86,.61,8.34,1.82,2.48,1.21,4.48,2.98,5.99,5.3,1.78-2.27,4.04-4.02,6.76-5.26,2.73-1.24,5.71-1.86,8.95-1.86,5.45,0,9.79,1.61,13,4.82Z"/>
  <path class="cls-1" d="M268.73,164.83c3.32,1.86,5.93,4.48,7.82,7.86,1.89,3.38,2.83,7.3,2.83,11.79s-.95,8.41-2.83,11.79c-1.89,3.38-4.5,5.99-7.82,7.86-3.32,1.86-7.01,2.79-11.06,2.79-5.56,0-9.94-1.75-13.12-5.26v20.33h-12.64v-59.29h12.07v5.02c3.13-3.78,7.69-5.67,13.69-5.67,4.05,0,7.74,.93,11.06,2.79Zm-5.26,28.43c2.08-2.19,3.12-5.12,3.12-8.79s-1.04-6.6-3.12-8.79c-2.08-2.19-4.74-3.28-7.98-3.28s-5.9,1.09-7.98,3.28c-2.08,2.19-3.12,5.12-3.12,8.79s1.04,6.6,3.12,8.79c2.08,2.19,4.74,3.28,7.98,3.28s5.9-1.09,7.98-3.28Z"/>
  <path class="cls-1" d="M331.71,162.68v43.58h-11.99v-5.18c-1.67,1.89-3.67,3.33-5.99,4.33-2.32,1-4.83,1.5-7.53,1.5-5.72,0-10.26-1.65-13.61-4.94-3.35-3.29-5.02-8.18-5.02-14.66v-24.62h12.64v22.76c0,7.02,2.94,10.53,8.83,10.53,3.02,0,5.45-.98,7.29-2.96,1.83-1.97,2.75-4.9,2.75-8.79v-21.55h12.64Z"/>
  <path class="cls-1" d="M347.51,205.57c-3.46-.89-6.21-2.01-8.26-3.36l4.21-9.07c1.94,1.24,4.29,2.25,7.05,3.04,2.75,.78,5.45,1.17,8.1,1.17,5.35,0,8.02-1.32,8.02-3.97,0-1.24-.73-2.13-2.19-2.67s-3.7-1-6.72-1.38c-3.56-.54-6.51-1.16-8.83-1.86-2.32-.7-4.33-1.94-6.03-3.73-1.7-1.78-2.55-4.32-2.55-7.61,0-2.75,.8-5.2,2.39-7.33,1.59-2.13,3.92-3.79,6.97-4.98,3.05-1.19,6.66-1.78,10.81-1.78,3.08,0,6.14,.34,9.19,1.01,3.05,.68,5.58,1.61,7.57,2.79l-4.21,8.99c-3.83-2.16-8.02-3.24-12.56-3.24-2.7,0-4.73,.38-6.08,1.13-1.35,.76-2.02,1.73-2.02,2.92,0,1.35,.73,2.3,2.19,2.83,1.46,.54,3.78,1.05,6.97,1.54,3.56,.59,6.48,1.23,8.75,1.9,2.27,.68,4.24,1.9,5.91,3.69s2.51,4.27,2.51,7.45c0,2.7-.81,5.1-2.43,7.21-1.62,2.11-3.98,3.74-7.09,4.9-3.11,1.16-6.79,1.74-11.06,1.74-3.62,0-7.16-.45-10.61-1.34Z"/>
  <path class="cls-2" d="M399.31,203.02c-4.51-2.48-8.05-5.93-10.61-10.33-2.57-4.4-3.85-9.33-3.85-14.78s1.28-10.38,3.85-14.78c2.56-4.4,6.12-7.84,10.65-10.33,4.54-2.48,9.61-3.73,15.23-3.73,4.21,0,8.1,.7,11.66,2.11,3.56,1.4,6.59,3.46,9.07,6.16l-3.81,3.81c-4.43-4.48-10.02-6.72-16.77-6.72-4.48,0-8.56,1.03-12.23,3.08-3.67,2.05-6.55,4.86-8.63,8.42-2.08,3.56-3.12,7.56-3.12,11.99s1.04,8.42,3.12,11.99c2.08,3.56,4.95,6.37,8.63,8.42,3.67,2.05,7.75,3.08,12.23,3.08,6.8,0,12.39-2.27,16.77-6.8l3.81,3.81c-2.48,2.7-5.52,4.77-9.11,6.2-3.59,1.43-7.49,2.15-11.7,2.15-5.62,0-10.68-1.24-15.19-3.73Z"/>
  <path class="cls-2" d="M483.91,163.66v42.61h-5.51v-8.42c-1.73,2.86-4.01,5.05-6.84,6.56-2.83,1.51-6.04,2.27-9.6,2.27-4,0-7.61-.92-10.85-2.75-3.24-1.83-5.78-4.4-7.61-7.69-1.84-3.29-2.75-7.05-2.75-11.26s.92-7.96,2.75-11.26c1.83-3.29,4.37-5.84,7.61-7.65,3.24-1.81,6.86-2.71,10.85-2.71,3.46,0,6.57,.72,9.36,2.15,2.78,1.43,5.06,3.52,6.84,6.28v-8.1h5.75Zm-13.41,35.84c2.4-1.38,4.29-3.33,5.67-5.87,1.38-2.54,2.07-5.43,2.07-8.67s-.69-6.13-2.07-8.67c-1.38-2.54-3.27-4.5-5.67-5.87-2.4-1.38-5.09-2.07-8.06-2.07s-5.74,.69-8.14,2.07c-2.4,1.38-4.29,3.33-5.67,5.87-1.38,2.54-2.07,5.43-2.07,8.67s.69,6.13,2.07,8.67c1.38,2.54,3.27,4.5,5.67,5.87,2.4,1.38,5.12,2.07,8.14,2.07s5.66-.69,8.06-2.07Z"/>
  <path class="cls-2" d="M501.45,205.17c-3.16-1-5.63-2.25-7.41-3.77l2.59-4.54c1.78,1.41,4.02,2.55,6.72,3.44,2.7,.89,5.51,1.34,8.42,1.34,3.89,0,6.76-.61,8.63-1.82s2.79-2.93,2.79-5.14c0-1.57-.51-2.79-1.54-3.69-1.03-.89-2.32-1.57-3.89-2.03-1.57-.46-3.64-.9-6.24-1.34-3.46-.65-6.24-1.31-8.34-1.98-2.11-.67-3.9-1.82-5.39-3.44-1.49-1.62-2.23-3.86-2.23-6.72,0-3.56,1.49-6.48,4.46-8.75,2.97-2.27,7.1-3.4,12.39-3.4,2.75,0,5.51,.37,8.26,1.09,2.75,.73,5.02,1.69,6.8,2.88l-2.51,4.62c-3.51-2.43-7.7-3.64-12.55-3.64-3.67,0-6.44,.65-8.3,1.94s-2.79,3-2.79,5.1c0,1.62,.53,2.92,1.58,3.89,1.05,.97,2.36,1.69,3.93,2.15,1.57,.46,3.73,.93,6.48,1.42,3.4,.65,6.13,1.3,8.18,1.94,2.05,.65,3.81,1.75,5.26,3.32,1.46,1.57,2.19,3.73,2.19,6.48,0,3.73-1.55,6.68-4.66,8.87-3.11,2.19-7.41,3.28-12.92,3.28-3.46,0-6.76-.5-9.92-1.5Z"/>
  <path class="cls-2" d="M560.53,203.67c-1.08,.97-2.4,1.71-3.97,2.23-1.57,.51-3.21,.77-4.94,.77-4,0-7.08-1.08-9.23-3.24-2.16-2.16-3.24-5.21-3.24-9.15v-39.93h5.75v9.31h12.88v4.86h-12.88v25.43c0,2.54,.62,4.47,1.86,5.79s3.05,1.98,5.43,1.98c2.59,0,4.7-.73,6.32-2.19l2.03,4.13Z"/>
  <path class="cls-1" d="M76.24,189.34l8.42,7.77c-2.7,3.3-6.05,5.81-10.04,7.54-4,1.72-8.45,2.59-13.37,2.59-4.29,0-8.28-.69-11.95-2.08l-14.16,7.04c-2.73,1.36-5.7-1.36-4.59-4.2l5.17-13.2c-.41-.58-.79-1.17-1.16-1.78-2.67-4.45-4.01-9.49-4.01-15.11s1.34-10.65,4.01-15.1c2.68-4.46,6.35-7.94,11.02-10.45s9.92-3.77,15.75-3.77c4.92,0,9.36,.87,13.33,2.6,3.97,1.72,7.3,4.21,10,7.45l-8.42,7.77c-3.84-4.42-8.59-6.64-14.26-6.64-3.51,0-6.64,.77-9.39,2.31-2.76,1.54-4.91,3.69-6.44,6.44-1.54,2.75-2.31,5.89-2.31,9.39s.77,6.65,2.31,9.4c1.53,2.76,3.68,4.9,6.44,6.44,2.75,1.54,5.88,2.31,9.39,2.31,5.67,0,10.42-2.24,14.26-6.72Z"/>
  <rect class="cls-2" x="433.65" y="141.29" width="15.39" height="3.88" rx="1.94" ry="1.94" transform="translate(44.54 383.73) rotate(-49.2)"/>
  <rect class="cls-2" x="419.11" y="137.17" width="15.39" height="3.88" rx="1.94" ry="1.94" transform="translate(357.72 582.67) rotate(-99.2)"/>
  <rect class="cls-2" x="439.84" y="155.06" width="15.39" height="3.88" rx="1.94" ry="1.94" transform="translate(2.24 -6.24) rotate(.8)"/>
</svg>